/* XPM */
static char *ec9f86dae17c44fcaac636030849438aUiqvxiE1di8O1V9C[] = {
/* columns rows colors chars-per-pixel */
"64 64 4 1 ",
"  c #FFC107",
". c #8BC34A",
"X c gray62",
"o c white",
/* pixels */
"................................................................",
"................................................................",
"................................................................",
"................................................................",
"................................................................",
"................................................................",
"................................................................",
"................................................................",
"................................................................",
"................................................................",
"................................................................",
"................................................................",
"................................................................",
"................................................................",
"................................................................",
"................................................................",
"................................................................",
"................................................................",
"................................................................",
"................................................................",
"................................................................",
"................................................................",
"................................................................",
"................................................................",
"................................................................",
"................................................................",
"................................................................",
"................................................................",
"................................................................",
"................................................................",
"................................................................",
"................................................................",
".............................oooooooooo.........................",
"............................oooooooooooo........................",
"...........................oooooooooooooo.......................",
"..........................oooooooooooooooo......................",
"..........................XXXooooooooooooo......................",
".........................oXoXXXXXXXooooooo......................",
".........................ooooooooXoXXXXXXo......................",
".........................oooooooXXooooooXXX.....................",
".........................oooooooXXooooooooo.....................",
".........................ooooooooXXoooooooo.....................",
".........................ooooooXXoXoooooooo.....................",
".........................ooooXXoooXoooooooo.....................",
"....................ooooXooooXooooXXooooooo.....................",
"...................oooooXooooXoooooXXXooooo.....................",
"...................XXooooXXXXXoooooooXXoooo.....................",
"...................oXXooXXoooooooooXXXXoooo.....................",
"...................ooXooXooooooooooXooXXoo......................",
"...................ooXXXXXoooooooooXoooXXX......................",
"...................ooooooXooooooooooXooooX .....................",
"...................oooooXoooXXXXXXooXoooo..       ..............",
".............      oooooXoooXXooooXXXoooo.      .    ...........",
"..........    ..... . .oX.ooooooooXXooooo  ...   ... ...........",
"............     .  . ....ooooooooXooooo....       . ...........",
"..............      .  ....oooooooXoooo...   ..  .   ...........",
".............. ...       ...oooooooooo......   .    ............",
"..............   .   .....................   ..    .............",
".............. .                           .      ..............",
"..............  .......    .        ....    ....................",
"................      .....  ...        ........................",
"......................           ...............................",
"................................................................",
"................................................................"
};
