/* XPM */
static char *eee5b182ee874cdb9c54c76322223f69lo4SCXDV7Cu11Q18[] = {
/* columns rows colors chars-per-pixel */
"64 64 10 1 ",
"  c None",
". c gray13",
"X c gray26",
"o c gray38",
"O c #FF3D00",
"+ c #E65100",
"@ c #FF9800",
"# c yellow",
"$ c gray74",
"% c white",
/* pixels */
"                                                                ",
"                                                                ",
"                                                                ",
"                                                                ",
"                                                                ",
"                                                                ",
"                      XXXXXX                                    ",
"                     X%X%X%XX                                   ",
"                    $%X%%X%XXX                                  ",
"                   $%%X%%%X%XX                                  ",
"                  $%%%X%.%X%X%X                                 ",
"                 $+%%XX%%%X%X%X                                 ",
"                @@@+%%%%%%X%X X                                 ",
"               @@@@++%%%%%%X%%$X                                ",
"               @@@@@+%%%%%%%%%$                                 ",
"              @@@@@@+%%%%%%%%%$                                 ",
"             o@@@@+++%%$%%%%%%$                                 ",
"           oo @@@+o   $$$%%%%%$                                 ",
"          oo       o    $%%%%$$                                 ",
"         o          o   #%%%%#                                  ",
"        oo          o  #$%%%%##                                 ",
"        o            o  #%%%%$#                                 ",
"        o            o  #%%%%#                                  ",
"        o            o  #%%%#$                                  ",
"        oo           o$$$#%#$$                                  ",
"         o          $o%%%###$                 $                 ",
"          o        $o%%%%%%%$$%%%           %%$$                ",
"          oo   OO $o%%%%%%%%%$$%%%%%%      %%%$$                ",
"           oo O  Oo%%%%%%%%%%%$$%%%%%%%%  %%%$$                 ",
"            oooooo%%%%%%%%%%%%%$%%%%%%%%%%%%$$                  ",
"              O  O%%%%%%%%%%%%%$$%%%%%%%%%%%$                   ",
"               OOO%%%%%%%%%%%%%%$%%%%%%%%%%%$                   ",
"                O%%%%%%%%%%%%%%%%%%%%%%%%%%%$                   ",
"                O$%%%%%%%%%%%%%%%%%%%%%%%%%$$                   ",
"                OO$%%%%%%%%%%%%%%%%%%%%%%%%$                    ",
"                 OO%%%%%%%%%%%%%%%%%%%%%%%%$                    ",
"                 O$%%%%%%%%%%%%%%%%%%%%%%%$$                    ",
"                 OO$$%%%%%%%%%%%%%%%%%%%%%$                     ",
"                   $%%%%%%%%%%%%%%%%%%%$%$$                     ",
"                   $$%%%%%%%$%%%$%%%%%$%%$                      ",
"                    $$%%%%%$%%%$$%%%%$%$$$                      ",
"                    $$%%%%$%%%%$ $%%$%%$                        ",
"                    $$$$%$%%$$$  $%$%%%$                        ",
"                       $$$%$$$    $$%$$                         ",
"                        $$$$        @+                          ",
"                        @+          @@+                         ",
"                        @@+         @@+                         ",
"                       @@@+        @@@+                         ",
"                      @+@@+       @+@@+                         ",
"                     @+@@@+      @+@@@+                         ",
"                     +@@+@+      +@@+@+                         ",
"                     +@+@@+      +@+@@+                         ",
"                      +@@+        +@@+                          ",
"                       ++          ++                           ",
"                                                                ",
"                                                                ",
"                                                                ",
"                                                                ",
"                                                                ",
"                                                                ",
"                                                                ",
"                                                                ",
"                                                                ",
"                                                                "
};
