/* XPM */
static char *_b609030be754414f1f055916d92be0ciMUZ4tcBoGcAUp1g[] = {
/* columns rows colors chars-per-pixel */
"64 64 9 1 ",
"  c None",
". c gray13",
"X c gray38",
"o c #FF3D00",
"O c #E65100",
"+ c #FF9800",
"@ c gray74",
"# c gray98",
"$ c white",
/* pixels */
"                                                                ",
"                                                                ",
"                                                                ",
"                                                                ",
"                                                                ",
"                                                                ",
"                      @@#@                                      ",
"                     @$$$$@@                                    ",
"                    @$$$$$$$@                                   ",
"                   @$$$$$$$$$@                                  ",
"                  @$$$$$.$$$$@                                  ",
"                 @O$$$$$$$$$$ @                                 ",
"                +++O$$$$$$$$$$@                                 ",
"               ++++OO$$$$$$$$$@                                 ",
"               +++++O$$$$$$$$$@                                 ",
"              ++++++O$$$$$$$$$@                                 ",
"             X++++OOO$$@$$$$$$@                                 ",
"           XX +++OX   @@@$$$$$@                                 ",
"          XX       X    @$$$$@@                                 ",
"         X          X   @$$$$@                                  ",
"        XX          X   @$$$$@                                  ",
"        X            X  @$$$$@                                  ",
"        X            X  @$$$$@                                  ",
"        X            X  @$$$$@                                  ",
"        XX           X@@@$$$@@                                  ",
"         X          @X$$$$$$@                 @                 ",
"          X        @X$$$$$$$@@$$$           $$@@                ",
"          XX   oo @X$$$$$$$$$@@$$$$$$      $$$@@                ",
"           XX o  oX$$$$$$$$$$$@@$$$$$$$$  $$$@@                 ",
"            XXXXXX$$$$$$$$$$$$$@$$$$$$$$$$$$@@                  ",
"              o  o$$$$$$$$$$$$$@@$$$$$$$$$$$@                   ",
"               ooo$$$$$$$$$$$$$$@$$$$$$$$$$$@                   ",
"                o$$$$$$$$$$$$$$$$$$$$$$$$$$$@                   ",
"                o@$$$$$$$$$$$$$$$$$$$$$$$$$@@                   ",
"                oo@$$$$$$$$$$$$$$$$$$$$$$$$@                    ",
"                 oo$$$$$$$$$$$$$$$$$$$$$$$$@                    ",
"                 o@$$$$$$$$$$$$$$$$$$$$$$$@@                    ",
"                 oo@@$$$$$$$$$$$$$$$$$$$$$@                     ",
"                   @$$$$$$$$$$$$$$$$$$$@$@@                     ",
"                   @@$$$$$$$@$$$@$$$$$@$$@                      ",
"                    @@$$$$$@$$$@@$$$$@$@@@                      ",
"                    @@$$$$@$$$$@ @$$@$$@                        ",
"                    @@@@$@$$@@@  @$@$$$@                        ",
"                       @@@$@@@    @@$@@                         ",
"                        @@@@        +O                          ",
"                        +O          ++O                         ",
"                        ++O         ++O                         ",
"                       +++O        +++O                         ",
"                      +O++O       +O++O                         ",
"                     +O+++O      +O+++O                         ",
"                     O++O+O      O++O+O                         ",
"                     O+O++O      O+O++O                         ",
"                      O++O        O++O                          ",
"                       OO          OO                           ",
"                                                                ",
"                                                                ",
"                                                                ",
"                                                                ",
"                                                                ",
"                                                                ",
"                                                                ",
"                                                                ",
"                                                                ",
"                                                                "
};
