/* XPM */
static char *_4eb10f790754471f6784a6ff45f22d9TrgftcpkSP2ltlbb[] = {
/* columns rows colors chars-per-pixel */
"64 64 9 1 ",
"  c None",
". c gray13",
"X c gray38",
"o c #E65100",
"O c #FF9800",
"+ c #8BC34A",
"@ c gray74",
"# c gray98",
"$ c white",
/* pixels */
"++++++++++++++++++++++++++++++++++++++++++++++++++++++++++++++++",
"++++++++++++++++++++++++++++++++++++++++++++++++++++++++++++++++",
"++++++++++++++++++++++++++++++++++++++++++++++++++++++++++++++++",
"++++++++++++++++++++++++++++++++++++++++++++++++++++++++++++++++",
"++++++++++++++++++++++++++++++++++++++++++++++++++++++++++++++++",
"++++++++++++++++++++++++++++++++++++++++++++++++++++++++++++++++",
"++++++++++++++++++++++@@#@++++++++++++++++++++++++++++++++++++++",
"+++++++++++++++++++++@$$$$@@++++++++++++++++++++++++++++++++++++",
"++++++++++++++++++++@$$$$$$$@+++++++++++++++++++++++++++++++++++",
"+++++++++++++++++++@$$$$$$$$$@++++++++++++++++++++++++++++++++++",
"++++++++++++++++++@$$$$$.$$$$@++++++++++++++++++++++++++++++++++",
"+++++++++++++++++@o$$$$$$$$$$ @+++++++++++++++++++++++++++++++++",
"++++++++++++++++OOOo$$$$$$$$$$@+++++++++++++++++++++++++++++++++",
"+++++++++++++++OOOOoo$$$$$$$$$@+++++++++++++++++++++++++++++++++",
"+++++++++++++++OOOOOo$$$$$$$$$@+++++++++++++++++++++++++++++++++",
"++++++++++++++OOOOOOo$$$$$$$$$@+++++++++++++++++++++++++++++++++",
"+++++++++++++XOOOOooo$$@$$$$$$@+++++++++++++++++++++++++++++++++",
"+++++++++++XX+OOOoX+++@@@$$$$$@+++++++++++++++++++++++++++++++++",
"++++++++++XX+++++++X++++@$$$$@@+++++++++++++++++++++++++++++++++",
"+++++++++X++++++++++X+++@$$$$@++++++++++++++++++++++++++++++++++",
"++++++++XX++++++++++X+++@$$$$@++++++++++++++++++++++++++++++++++",
"++++++++X++++++++++++X++@$$$$@++++++++++++++++++++++++++++++++++",
"++++++++X++++++++++++X++@$$$$@++++++++++++++++++++++++++++++++++",
"++++++++X++++++++++++X++@$$$$@++++++++++++++++++++++++++++++++++",
"++++++++XX+++++++++++X@@@$$$@@++++++++++++++++++++++++++++++++++",
"+++++++++X++++++++++@X$$$$$$@+++++++++++++++++@+++++++++++++++++",
"++++++++++X++++++++@X$$$$$$$@@$$$+++++++++++$$@@++++++++++++++++",
"++++++++++XX++++++@X$$$$$$$$$@@$$$$$$++++++$$$@@++++++++++++++++",
"+++++++++++XX+++++X$$$$$$$$$$$@@$$$$$$$$++$$$@@+++++++++++++++++",
"++++++++++++XXXXXX$$$$$$$$$$$$$@$$$$$$$$$$$$@@++++++++++++++++++",
"+++++++++++++++++$$$$$$$$$$$$$$@@$$$$$$$$$$$@+++++++++++++++++++",
"+++++++++++++++++$$$$$$$$$$$$$$$@$$$$$$$$$$$@+++++++++++++++++++",
"+++++++++++++++++$$$$$$$$$$$$$$$$$$$$$$$$$$$@+++++++++++++++++++",
"+++++++++++++++++@$$$$$$$$$$$$$$$$$$$$$$$$$@@+++++++++++++++++++",
"+++++++++++++++++@@$$$$$$$$$$$$$$$$$$$$$$$$@++++++++++++++++++++",
"+++++++++++++++++@@$$$$$$$$$$$$$$$$$$$$$$$$@++++++++++++++++++++",
"+++++++++++++++++@@$$$$$$$$$$$$$$$$$$$$$$$@@++++++++++++++++++++",
"+++++++++++++++++@@@@$$$$$$$$$$$$$$$$$$$$$@+++++++++++++++++++++",
"+++++++++++++++++++@$$$$$$$$$$$$$$$$$$$@$@@+++++++++++++++++++++",
"+++++++++++++++++++@@$$$$$$$@$$$@$$$$$@$$@++++++++++++++++++++++",
"++++++++++++++++++++@@$$$$$@$$$@@$$$$@$@@@++++++++++++++++++++++",
"++++++++++++++++++++@@$$$$@$$$$@+@$$@$$@++++++++++++++++++++++++",
"++++++++++++++++++++@@@@$@$$@@@++@$@$$$@++++++++++++++++++++++++",
"+++++++++++++++++++++++@@@$@@@++++@@$@@+++++++++++++++++++++++++",
"++++++++++++++++++++++++@@@@++++++++Oo++++++++++++++++++++++++++",
"++++++++++++++++++++++++Oo++++++++++OOo+++++++++++++++++++++++++",
"++++++++++++++++++++++++OOo+++++++++OOo+++++++++++++++++++++++++",
"+++++++++++++++++++++++OOOo++++++++OOOo+++++++++++++++++++++++++",
"++++++++++++++++++++++OoOOo++++++++oOOo+++++++++++++++++++++++++",
"+++++++++++++++++++++OoOOOo++++++OoOOOo+++++++++++++++++++++++++",
"+++++++++++++++++++++oOOoOo++++++oOOoOo+++++++++++++++++++++++++",
"+++++++++++++++++++++oOoOOo++++++oOoOOo+++++++++++++++++++++++++",
"++++++++++++++++++++++oOOo++++++++oOOo++++++++++++++++++++++++++",
"+++++++++++++++++++++++oo++++++++++oo+++++++++++++++++++++++++++",
"++++++++++++++++++++++++++++++++++++++++++++++++++++++++++++++++",
"++++++++++++++++++++++++++++++++++++++++++++++++++++++++++++++++",
"++++++++++++++++++++++++++++++++++++++++++++++++++++++++++++++++",
"++++++++++++++++++++++++++++++++++++++++++++++++++++++++++++++++",
"++++++++++++++++++++++++++++++++++++++++++++++++++++++++++++++++",
"++++++++++++++++++++++++++++++++++++++++++++++++++++++++++++++++",
"++++++++++++++++++++++++++++++++++++++++++++++++++++++++++++++++",
"++++++++++++++++++++++++++++++++++++++++++++++++++++++++++++++++",
"++++++++++++++++++++++++++++++++++++++++++++++++++++++++++++++++",
"++++++++++++++++++++++++++++++++++++++++++++++++++++++++++++++++"
};
