/* XPM */
static char *_3f1d0d362d4425eb7d9d7765dc57727bkPGKkjpjKwGWG8y[] = {
/* columns rows colors chars-per-pixel */
"64 64 15 1 ",
"  c black",
". c gray13",
"X c gray26",
"o c #BF360C",
"O c #FF3D00",
"+ c #E65100",
"@ c #FF6D00",
"# c #FF9100",
"$ c #FFD600",
"% c #FFEA00",
"& c yellow",
"* c #FFAB40",
"= c #8BC34A",
"- c gray62",
"; c white",
/* pixels */
"================================================================",
"================================================================",
"================================================================",
"================================================================",
"================================    ============================",
"==============================        ==========================",
"============================            ========================",
"==========================            ..========================",
"========================             .... ======================",
"======================= =           .@+.=  =====================",
"======================= =          @ ++.== =====================",
"====================== ==     +@ @++ ++..= =====================",
"===================== ==     ++@ +++  ++.= =====================",
"===================== ==   @ +++ +@@+ ++..= ====================",
"=======================    ++ ++ +X;+++++== ====================",
"======================  =  +++ + +X.+++++=======================",
"====================== ==# ++++ + +++++++=======================",
"===================== ===# ++++    ++++++=======================",
"===================== ====  +++++ + +++*+=======================",
"===================== ====  +++++ ++%%%%========================",
"===================== ====   ++++ ++$$$$========================",
"========================== oo++++ ++++++========================",
"========================== @oo++ ++++++=========================",
"==========================  @o++++++++==========================",
"=========================== @@oo+++++oo=============       =====",
"=====================++++==  @@@@@@@@+oo===========  =====   ===",
"===================++++++++&++++++++++&+o========== ========  ==",
"===================++++++++&++++++++++&++o========= =========  =",
"==================+++++++@@&&+++++++++&+++o======== ========== =",
"==================+++++++@o+&+++++++++&++++o======= oooo======  ",
"==================++++++@@o+&&++++++++&+++++=======@@@ooo====== ",
"==================++++++@o+++&+++++++&&++++++======++@o+o====== ",
"==================++++@@@o+++&&++++++&o+++++++====++++@+o=====  ",
"=================+++++@oo+++++&&+++&&+oo++++++===++++++ o===== =",
"=================+++++@o+++++++&&&&&+++o+++++++++++++++ ==OO== =",
"=================+++++@o++++++++++o++++oo++++++++++++++  O==O  =",
"=================+++++@o++++o+++++o+++o+o+++++++++++++==  ==O===",
"=================+++++@o++++++++++o+++++oo+++++++++++====O  O===",
"=================+++++@o+++++++++o+++++++o+++++++++++=====OOO===",
"==================++++@@oo+++++++o+++++++==+++++++++=======O====",
"==================+++++@@@oooooo+o++++++===================O====",
"==================+++++++@@@@+@o+o++++++===================OO===",
"===================++++++++++++o+o++++++====================OO==",
"====================++++++++++@o+o++++++====================O===",
"=====================+++++++++@o+o++++++====================OO==",
"==========================%%%%%%%%%%%%%%========================",
"==========================%%%%%%%%%%%%%%========================",
"==========================%%%%%%%%%%%%%%========================",
"==========================     ; ;      ========================",
"==========================              ========================",
"==========================     ====     ========================",
"==========================     ====     ========================",
"==========================     ====     ========================",
"==========================     ====     ========================",
"==========================     ====     ========================",
"==========================     ====     ========================",
"==========================     ====     ========================",
"==========================     ====     ========================",
"==========================     ====     ========================",
"==========================-    ====-    ========================",
"==========================---;--===---;--=======================",
"==========================----;;-==----;;-======================",
"==========================-------==-------======================",
"================================================================"
};
