/* XPM */
static char *_53cda47ae5042168b1af1ee1c92c1d39V39GstrxkLyFUSN[] = {
/* columns rows colors chars-per-pixel */
"64 64 6 1 ",
"  c #4E342E",
". c #6D4C41",
"X c #5B9E09",
"o c #8BC34A",
"O c gray74",
"+ c #CFD8DC",
/* pixels */
"oooooooooooooooooooooooooooooooooooooooooooooooooooooooooooooooo",
"oooooooooooooooooooooooooooXXXXooooooooooooooooooooooooooooooooo",
"oooooooooooooooooooXXXXXooXXXXXXXooXXXXooooooooooooooooooooooooo",
"oooooooooooooXXXXXXX.XXXXXXXXXXXXXXXXXXXXXXXXooooooooooooooooooo",
"ooooooooXXXooXXXXXXX.XXXXXXXXXXXXXXXXXXXXXXXXoXXXXXXXooooooooooo",
"oooooooXXXXXXXXXXXXX.XXXXXXXXXXXXXXXXXXXXXXXXXXXXXXXXXoooooooooo",
"ooooooXXXXXXXXXXXXXX.XXXXXXXXXXXXXXX..XXXXXXXXXXXX...XXooooooooo",
"ooooooXXXXXXXXXXXXXX..XXX..XXXXXXXX..XXXXXXXXXX...XXXXXooooooooo",
"ooooooXXXXXXXXXXXXXX.XXXXX...XXXXXX..XXXXXXXXXX.XXXXXXXooooooooo",
"ooooooXXXXXXXXXXXXX..XXXXXXX..XXXXXX.XXXXXXXXXX.XXXXXXXooooooooo",
"ooooooXXXXXX.XXXXXX.XXXXXXXXX.XXXXXX.XXXXXXXXXXX.XXXXXoooooooooo",
"oooooooXXXXXX....XX..XXXXXXXX..XXXXX.XXXXXX.XXXX.XXXXooooooooooo",
"oooXXXXXXXXXXXXX..X..XXXXXXXXX....XX.XXXXXX......XXXXooooooooooo",
"oooXXXXXXXXXXXXXX...XXXXXXXXXXXXX....XXXXXX.XXXXXXXXXooooooooooo",
"ooXXXXXXXXXXXXXXXX..XXXXXXXXXXXXXX...XXXXX.XXXXXXXXXXooooooooooo",
"ooXX.......XXXXXXXX.XXXXXXXX..XXXX.XXXXXXX.XXXXXXXXXoooooooooooo",
"ooXXXXXXXX.XXXXXXXX.XXXXXXXXX.XXXX.XXXXXXX.XXXXXXXoooooooooooooo",
"ooXXXXXXXX.XXXXXXXX.XXXXXXXX..XXXX.XXXXXXX.XXXXXXXoooooooooooooo",
"oooXXXXXXXX.XXXXXXX.XXXXXXXX.XXXXX..XXXXX.XXXXXXXXoooooooooooooo",
"ooooXXXXXXX...........XXXXXX.XXXXXX.XXXX..XXXXXXXXoooooooooooooo",
"ooooXXXXXXXXXXXXXXXXXX....X.XXXXXXX......XXXXXXXXXoooooooooooooo",
"ooooooXXXXXXXXXXXXXXXXXXX..XXXXXX...XXXXXXXXXXXXXXoooooooooooooo",
"ooooooXXXXXXXXXX...XXXXXXX.X......XXXXXXXXXXXXXXXooooooooooooooo",
"oooooXXXXXXXXXXXX..XXXXXXX...XXX.XXXXXXXXXXXXXXXXXoooooooooooooo",
"oooooXXXXXXXXXXXX..XXXXXXXX.XXXX.XXXXXXXXXXXXXXXXXoooooooooooooo",
"oooooXXXXXXXXXXXXX..XXXXX..X.XX.XXXX...XXXXXXXXXXXoooooooooooooo",
"oooooXXXXXXXXXXXXXX..XXXX.XXXXXXX....XXXXXXXXXXXXXoooooooooooooo",
"ooooooXXXXXXXXXXXXXX.XXX.XXXXXXXX.XXXXXXXXXXXXXXXooooooooooooooo",
"ooooooooXXXXXXXXXXX......XXXXXXXX.XXXXXXXXXXXXoooooooooooooooooo",
"oooooooooooXXXXXXX..XXXX.XXXXXX.......XXXXXXXXXXoooooooooooooooo",
"ooooooooooXXXXXXXX.XXXXX.XXX....XX..X.XXXXXXXXXXoooooooooooooooo",
"oooooooooXXXXXXXXX.XXX....XX...XXXXXX..XXXXXXXXXoooooooooooooooo",
"oooooooooXXXX..XXX.XXX..........XXXXXX..XXXXXXXXoooooooooooooooo",
"oooooooooXXXX.X....XXo..........XXXXXXX.XXXXoooooooooooooooooooo",
"oooooooooXXXXXXXXXXXXo..........oXXXXXXXXXXXXooooooooooooooooooo",
"ooooooooooXXXXoXXXXXXo..........oXXXXXXXXXXXXooooooooooooooooooo",
"ooooooooooooooooXXoooo..........ooXXXoXXXXXXoooooooooooooooooooo",
"oooooooooooooooooooooo..........oooooooooooooooooooooooooooooooo",
"oooooooooooooooooooooo..........oooooooooooooooooooooooooooooooo",
"oooooooooooooooooooooo..........oooooooooooooooooooooooooooooooo",
"oooooooooooooooooooooo..........oooooooooooooooooooooooooooooooo",
"oooooooooooooooooooooo..........oooooooooooooooooooooooooooooooo",
"oooooooooooooooooooooo..........oooooooooooooooooooooooooooooooo",
"oooooooooooooooooooooo..........oooooooooooooooooooooooooooooooo",
"oooooooooooooooooooooo..........oooooooooooooooooooooooooooooooo",
"oooooooooooooooooooooo..........oooooooooooooooooooooooooooooooo",
"oooooooooooooooooooooo..........oooooooooooooooooooooooooooooooo",
"oooooooooooooooooooooo..........oooooooooooooooooooooooooooooooo",
"oooooooooooooooooooooo..........oooooooooooooooooooooooooooooooo",
"oooooooooooooooooooooo..........oooooooooooooooooooooooooooooooo",
"oooooooooooooooooooooo..........oooooooooooooooooooooooooooooooo",
"oooooooooooooooooooooo..........oooooooooooooooooooooooooooooooo",
"oooooooooooooooooooooo..... .  .  oooo.ooooooooooooooooooooooooo",
"oooooooooooooooooo     .   o  ooo oooo ooooooooooooooooooooooooo",
"ooooooooooooooooo oooo  oooo  oooo      oooooooooooooooooooooooo",
"ooooooooooooooooo oooooooooooo ooooooooo  oooooooooooooooooooooo",
"oooooooooooooooo oooooooooooooo ooo oooooo    oo   ooooooooooooo",
"OOOOOOOOOOOOOOOOOOOOOOOOOOOOOOOOOOOOOOOOOOOOOOOOOOOOOOOOOOOOOOOO",
"O++++++O++++++O++++++O++++++O++++++O++++++O++++++O++++++O++++++O",
"O++++++O++++++O++++++O++++++O++++++O++++++O++++++O++++++O++++++O",
"OOOOOOOOOOOOOOOOOOOOOOOOOOOOOOOOOOOOOOOOOOOOOOOOOOOOOOOOOOOOOOOO",
"O++++++O++++++O++++++O++++++O++++++O++++++O++++++O++++++O++++++O",
"O++++++O++++++O++++++O++++++O++++++O++++++O++++++O++++++O++++++O",
"OOOOOOOOOOOOOOOOOOOOOOOOOOOOOOOOOOOOOOOOOOOOOOOOOOOOOOOOOOOOOOOO"
};
